{
  "accessors": [
    {
      "bufferView": 2,
      "componentType": 5126,
      "count": 82,
      "max": [
        0.1512800008058548,
        1.992319941520691,
        1.0937700271606445
      ],
      "min": [
        -0.18435999751091003,
        -1.0,
        -1.082129955291748
      ],
      "type": "VEC3"
    },
    {
      "bufferView": 2,
      "byteOffset": 984,
      "componentType": 5126,
      "count": 82,
      "max": [
        1.0,
        1.0,
        0.999500036239624
      ],
      "min": [
        -1.0,
        -1.0,
        -1.0
      ],
      "type": "VEC3"
    },
    {
      "bufferView": 1,
      "componentType": 5126,
      "count": 82,
      "max": [
        0.9761999845504761,
        0.9823300242424011
      ],
      "min": [
        0.009879999794065952,
        0.009879999794065952
      ],
      "type": "VEC2"
    },
    {
      "bufferView": 1,
      "byteOffset": 656,
      "componentType": 5126,
      "count": 82,
      "max": [
        0.9761999845504761,
        0.9823300242424011
      ],
      "min": [
        0.009879999794065952,
        0.009879999794065952
      ],
      "type": "VEC2"
    },
    {
      "bufferView": 0,
      "componentType": 5125,
      "count": 174,
      "type": "SCALAR"
    },
    {
      "bufferView": 2,
      "byteOffset": 1968,
      "componentType": 5126,
      "count": 24,
      "max": [
        0.1348399966955185,
        1.9395699501037598,
        0.9546899795532227
      ],
      "min": [
        -0.16355000436306,
        -0.9472600221633911,
        -1.029379963874817
      ],
      "type": "VEC3"
    },
    {
      "bufferView": 2,
      "byteOffset": 2256,
      "componentType": 5126,
      "count": 24,
      "max": [
        0.293444961309433,
        1.0,
        0.0
      ],
      "min": [
        -0.3504515588283539,
        -1.0,
        -0.991041898727417
      ],
      "type": "VEC3"
    },
    {
      "bufferView": 1,
      "byteOffset": 1312,
      "componentType": 5126,
      "count": 24,
      "max": [
        0.9438599944114685,
        0.9319800138473511
      ],
      "min": [
        0.7854899764060974,
        0.2960599958896637
      ],
      "type": "VEC2"
    },
    {
      "bufferView": 1,
      "byteOffset": 1504,
      "componentType": 5126,
      "count": 24,
      "max": [
        0.9438599944114685,
        0.9319800138473511
      ],
      "min": [
        0.7854899764060974,
        0.2960599958896637
      ],
      "type": "VEC2"
    },
    {
      "bufferView": 0,
      "byteOffset": 696,
      "componentType": 5125,
      "count": 54,
      "type": "SCALAR"
    },
    {
      "bufferView": 2,
      "byteOffset": 2544,
      "componentType": 5126,
      "count": 56,
      "max": [
        0.7607499957084656,
        1.7620899677276611,
        1.1975200176239014
      ],
      "min": [
        0.3515799939632416,
        -0.9259899854660034,
        -1.2896499633789063
      ],
      "type": "VEC3"
    },
    {
      "bufferView": 2,
      "byteOffset": 3216,
      "componentType": 5126,
      "count": 56,
      "max": [
        1.0,
        0.8914840817451477,
        0.8834240436553955
      ],
      "min": [
        -1.0,
        -0.9111171364784241,
        -0.8914840817451477
      ],
      "type": "VEC3"
    },
    {
      "bufferView": 1,
      "byteOffset": 1696,
      "componentType": 5126,
      "count": 56,
      "max": [
        0.9196000099182129,
        0.9787899851799011
      ],
      "min": [
        0.021950000897049904,
        0.009879999794065952
      ],
      "type": "VEC2"
    },
    {
      "bufferView": 1,
      "byteOffset": 2144,
      "componentType": 5126,
      "count": 56,
      "max": [
        0.9196000099182129,
        0.9787899851799011
      ],
      "min": [
        0.021950000897049904,
        0.009879999794065952
      ],
      "type": "VEC2"
    },
    {
      "bufferView": 0,
      "byteOffset": 912,
      "componentType": 5125,
      "count": 102,
      "type": "SCALAR"
    },
    {
      "bufferView": 2,
      "byteOffset": 3888,
      "componentType": 5126,
      "count": 24,
      "max": [
        0.7407100200653076,
        1.7421300411224365,
        1.1975200176239014
      ],
      "min": [
        0.3769400119781494,
        -0.8719499707221985,
        -1.232890009880066
      ],
      "type": "VEC3"
    },
    {
      "bufferView": 2,
      "byteOffset": 4176,
      "componentType": 5126,
      "count": 24,
      "max": [
        0.2068815380334854,
        0.8914840817451477,
        0.4530520439147949
      ],
      "min": [
        -0.24964271485805511,
        -0.8914840817451477,
        -0.8875647187232971
      ],
      "type": "VEC3"
    },
    {
      "bufferView": 1,
      "byteOffset": 2592,
      "componentType": 5126,
      "count": 24,
      "max": [
        0.8938900232315063,
        0.9396899938583374
      ],
      "min": [
        0.6178900003433228,
        0.009879999794065952
      ],
      "type": "VEC2"
    },
    {
      "bufferView": 1,
      "byteOffset": 2784,
      "componentType": 5126,
      "count": 24,
      "max": [
        0.8938900232315063,
        0.9396899938583374
      ],
      "min": [
        0.6178900003433228,
        0.009879999794065952
      ],
      "type": "VEC2"
    },
    {
      "bufferView": 0,
      "byteOffset": 1320,
      "componentType": 5125,
      "count": 54,
      "type": "SCALAR"
    },
    {
      "bufferView": 2,
      "byteOffset": 4464,
      "componentType": 5126,
      "count": 38,
      "max": [
        0.7607499957084656,
        1.8290200233459473,
        1.3189200162887573
      ],
      "min": [
        0.3515799939632416,
        -0.17291000485420227,
        0.19220000505447388
      ],
      "type": "VEC3"
    },
    {
      "bufferView": 2,
      "byteOffset": 4920,
      "componentType": 5126,
      "count": 38,
      "max": [
        0.9568198323249817,
        0.8334255218505859,
        0.8912593126296997
      ],
      "min": [
        -0.952727735042572,
        -0.9757930040359497,
        -0.9167516827583313
      ],
      "type": "VEC3"
    },
    {
      "bufferView": 1,
      "byteOffset": 2976,
      "componentType": 5126,
      "count": 38,
      "max": [
        0.969290018081665,
        0.952489972114563
      ],
      "min": [
        0.009879999794065952,
        0.009879999794065952
      ],
      "type": "VEC2"
    },
    {
      "bufferView": 1,
      "byteOffset": 3280,
      "componentType": 5126,
      "count": 38,
      "max": [
        0.969290018081665,
        0.952489972114563
      ],
      "min": [
        0.009879999794065952,
        0.009879999794065952
      ],
      "type": "VEC2"
    },
    {
      "bufferView": 0,
      "byteOffset": 1536,
      "componentType": 5125,
      "count": 72,
      "type": "SCALAR"
    },
    {
      "bufferView": 2,
      "byteOffset": 5376,
      "componentType": 5126,
      "count": 94,
      "max": [
        0.3508400022983551,
        2.2039899826049805,
        1.4644800424575806
      ],
      "min": [
        0.15286000072956085,
        -1.059999942779541,
        -1.4847099781036377
      ],
      "type": "VEC3"
    },
    {
      "bufferView": 2,
      "byteOffset": 6504,
      "componentType": 5126,
      "count": 94,
      "max": [
        1.0,
        0.9500336647033691,
        0.9488382935523987
      ],
      "min": [
        -1.0,
        -0.9500336647033691,
        -0.9500336647033691
      ],
      "type": "VEC3"
    },
    {
      "bufferView": 1,
      "byteOffset": 3584,
      "componentType": 5126,
      "count": 94,
      "max": [
        0.990119993686676,
        0.9754700064659119
      ],
      "min": [
        0.009879999794065952,
        0.009879999794065952
      ],
      "type": "VEC2"
    },
    {
      "bufferView": 1,
      "byteOffset": 4336,
      "componentType": 5126,
      "count": 94,
      "max": [
        0.990119993686676,
        0.9754700064659119
      ],
      "min": [
        0.009879999794065952,
        0.009879999794065952
      ],
      "type": "VEC2"
    },
    {
      "bufferView": 0,
      "byteOffset": 1824,
      "componentType": 5125,
      "count": 174,
      "type": "SCALAR"
    },
    {
      "bufferView": 2,
      "byteOffset": 7632,
      "componentType": 5126,
      "count": 24,
      "max": [
        0.3411400020122528,
        2.114459991455078,
        1.3151099681854248
      ],
      "min": [
        0.16514000296592712,
        -0.9979000091552734,
        -1.4188100099563599
      ],
      "type": "VEC3"
    },
    {
      "bufferView": 2,
      "byteOffset": 7920,
      "componentType": 5126,
      "count": 24,
      "max": [
        0.46803903579711914,
        0.9500336647033691,
        0.31214776635169983
      ],
      "min": [
        -0.9732323884963989,
        -0.9500336647033691,
        -0.9275917410850525
      ],
      "type": "VEC3"
    },
    {
      "bufferView": 1,
      "byteOffset": 5088,
      "componentType": 5126,
      "count": 24,
      "max": [
        0.9546300172805786,
        0.9732499718666077
      ],
      "min": [
        0.7221800088882446,
        0.5822499990463257
      ],
      "type": "VEC2"
    },
    {
      "bufferView": 1,
      "byteOffset": 5280,
      "componentType": 5126,
      "count": 24,
      "max": [
        0.9546300172805786,
        0.9732499718666077
      ],
      "min": [
        0.7221800088882446,
        0.5822499990463257
      ],
      "type": "VEC2"
    },
    {
      "bufferView": 0,
      "byteOffset": 2520,
      "componentType": 5125,
      "count": 54,
      "type": "SCALAR"
    }
  ],
  "asset": {
    "extras": {
      "author": "igor-tkachenko (https://sketchfab.com/igor-tkachenko)",
      "license": "CC-BY-4.0 (http://creativecommons.org/licenses/by/4.0/)",
      "source": "https://sketchfab.com/3d-models/books-62fc2898df55483f87461a8f12a0113f",
      "title": "Books"
    },
    "generator": "Sketchfab-12.68.0",
    "version": "2.0"
  },
  "bufferViews": [
    {
      "buffer": 0,
      "byteLength": 2736,
      "name": "floatBufferViews",
      "target": 34963
    },
    {
      "buffer": 0,
      "byteLength": 5472,
      "byteOffset": 2736,
      "byteStride": 8,
      "name": "floatBufferViews",
      "target": 34962
    },
    {
      "buffer": 0,
      "byteLength": 8208,
      "byteOffset": 8208,
      "byteStride": 12,
      "name": "floatBufferViews",
      "target": 34962
    }
  ],
  "buffers": [
    {
      "byteLength": 16416,
      "uri": "scene.bin"
    }
  ],
  "materials": [
    {
      "doubleSided": true,
      "name": "cover1",
      "pbrMetallicRoughness": {
        "baseColorFactor": [
          0.003412157218900218,
          0.04167169351225246,
          0.026499468841862356,
          1.0
        ],
        "metallicFactor": 0.0,
        "roughnessFactor": 0.6
      }
    },
    {
      "doubleSided": true,
      "name": "paper1",
      "pbrMetallicRoughness": {
        "baseColorFactor": [
          0.732532985489547,
          0.6155843955088853,
          0.3071371063623072,
          1.0
        ],
        "metallicFactor": 0.0,
        "roughnessFactor": 0.6
      }
    },
    {
      "doubleSided": true,
      "name": "cover1.002",
      "pbrMetallicRoughness": {
        "baseColorFactor": [
          0.029338584977665404,
          0.13933694276970607,
          0.5329208617282817,
          1.0
        ],
        "metallicFactor": 0.0,
        "roughnessFactor": 0.6
      }
    },
    {
      "doubleSided": true,
      "name": "paper1.002",
      "pbrMetallicRoughness": {
        "baseColorFactor": [
          0.7926760664667006,
          0.6317730677613708,
          0.44085077328315525,
          1.0
        ],
        "metallicFactor": 0.0,
        "roughnessFactor": 0.6
      }
    },
    {
      "doubleSided": true,
      "name": "torez",
      "pbrMetallicRoughness": {
        "baseColorFactor": [
          0.7665614189803082,
          0.07145314366126121,
          0.011677426536370166,
          1.0
        ],
        "metallicFactor": 0.0,
        "roughnessFactor": 0.6
      }
    },
    {
      "doubleSided": true,
      "name": "cover1.001",
      "pbrMetallicRoughness": {
        "baseColorFactor": [
          0.12256760431052603,
          0.013265792565519987,
          0.002768593247917813,
          1.0
        ],
        "metallicFactor": 0.0,
        "roughnessFactor": 0.6
      }
    },
    {
      "doubleSided": true,
      "name": "paper1.001",
      "pbrMetallicRoughness": {
        "baseColorFactor": [
          0.7409556523337896,
          0.5076783720620193,
          0.4448387236836093,
          1.0
        ],
        "metallicFactor": 0.0,
        "roughnessFactor": 0.6
      }
    }
  ],
  "meshes": [
    {
      "name": "Cube_0",
      "primitives": [
        {
          "attributes": {
            "NORMAL": 1,
            "POSITION": 0,
            "TEXCOORD_0": 2,
            "TEXCOORD_1": 3
          },
          "indices": 4,
          "material": 0,
          "mode": 4
        }
      ]
    },
    {
      "name": "Cube_1",
      "primitives": [
        {
          "attributes": {
            "NORMAL": 6,
            "POSITION": 5,
            "TEXCOORD_0": 7,
            "TEXCOORD_1": 8
          },
          "indices": 9,
          "material": 1,
          "mode": 4
        }
      ]
    },
    {
      "name": "Cube_2",
      "primitives": [
        {
          "attributes": {
            "NORMAL": 11,
            "POSITION": 10,
            "TEXCOORD_0": 12,
            "TEXCOORD_1": 13
          },
          "indices": 14,
          "material": 2,
          "mode": 4
        }
      ]
    },
    {
      "name": "Cube_3",
      "primitives": [
        {
          "attributes": {
            "NORMAL": 16,
            "POSITION": 15,
            "TEXCOORD_0": 17,
            "TEXCOORD_1": 18
          },
          "indices": 19,
          "material": 3,
          "mode": 4
        }
      ]
    },
    {
      "name": "Cube_4",
      "primitives": [
        {
          "attributes": {
            "NORMAL": 21,
            "POSITION": 20,
            "TEXCOORD_0": 22,
            "TEXCOORD_1": 23
          },
          "indices": 24,
          "material": 4,
          "mode": 4
        }
      ]
    },
    {
      "name": "Cube_5",
      "primitives": [
        {
          "attributes": {
            "NORMAL": 26,
            "POSITION": 25,
            "TEXCOORD_0": 27,
            "TEXCOORD_1": 28
          },
          "indices": 29,
          "material": 5,
          "mode": 4
        }
      ]
    },
    {
      "name": "Cube_6",
      "primitives": [
        {
          "attributes": {
            "NORMAL": 31,
            "POSITION": 30,
            "TEXCOORD_0": 32,
            "TEXCOORD_1": 33
          },
          "indices": 34,
          "material": 6,
          "mode": 4
        }
      ]
    }
  ],
  "nodes": [
    {
      "children": [
        1
      ],
      "matrix": [
        1.0,
        0.0,
        0.0,
        0.0,
        0.0,
        2.220446049250313e-16,
        -1.0,
        0.0,
        0.0,
        1.0,
        2.220446049250313e-16,
        0.0,
        0.0,
        0.0,
        0.0,
        1.0
      ],
      "name": "Sketchfab_model"
    },
    {
      "children": [
        2
      ],
      "name": "Root"
    },
    {
      "children": [
        3,
        4,
        5,
        6,
        7,
        8,
        9
      ],
      "matrix": [
        0.0,
        0.0,
        1.0,
        0.0,
        0.0,
        1.0,
        0.0,
        0.0,
        -1.0,
        0.0,
        0.0,
        0.0,
        0.0,
        0.0,
        0.18847000000000003,
        1.0
      ],
      "name": "Cube"
    },
    {
      "mesh": 0,
      "name": "Cube_0"
    },
    {
      "mesh": 1,
      "name": "Cube_1"
    },
    {
      "mesh": 2,
      "name": "Cube_2"
    },
    {
      "mesh": 3,
      "name": "Cube_3"
    },
    {
      "mesh": 4,
      "name": "Cube_4"
    },
    {
      "mesh": 5,
      "name": "Cube_5"
    },
    {
      "mesh": 6,
      "name": "Cube_6"
    }
  ],
  "scene": 0,
  "scenes": [
    {
      "name": "Sketchfab_Scene",
      "nodes": [
        0
      ]
    }
  ]
}
