{
  "accessors": [
    {
      "bufferView": 2,
      "componentType": 5126,
      "count": 5768,
      "max": [
        10.155845642089844,
        57.829986572265625,
        10.155845642089844
      ],
      "min": [
        -10.155845642089844,
        -0.00269530713558197,
        -14.775466918945313
      ],
      "type": "VEC3"
    },
    {
      "bufferView": 2,
      "byteOffset": 69216,
      "componentType": 5126,
      "count": 5768,
      "max": [
        1.0,
        1.0,
        0.9999988675117493
      ],
      "min": [
        -1.0,
        -1.0,
        -0.9999988675117493
      ],
      "type": "VEC3"
    },
    {
      "bufferView": 3,
      "componentType": 5126,
      "count": 5768,
      "max": [
        1.0,
        0.9991625547409058,
        0.9999955296516418,
        1.0
      ],
      "min": [
        -1.0,
        -0.9998250007629395,
        -0.9999954700469971,
        -1.0
      ],
      "type": "VEC4"
    },
    {
      "bufferView": 1,
      "componentType": 5126,
      "count": 5768,
      "max": [
        0.998890221118927,
        0.9888517260551453
      ],
      "min": [
        0.0,
        -1.1374791896150843e-14
      ],
      "type": "VEC2"
    },
    {
      "bufferView": 0,
      "componentType": 5125,
      "count": 29928,
      "type": "SCALAR"
    },
    {
      "bufferView": 2,
      "byteOffset": 138432,
      "componentType": 5126,
      "count": 190,
      "max": [
        4.105804443359375,
        48.787078857421875,
        7.454002380371094
      ],
      "min": [
        -4.105806350708008,
        40.097198486328125,
        -0.8397464752197266
      ],
      "type": "VEC3"
    },
    {
      "bufferView": 2,
      "byteOffset": 140712,
      "componentType": 5126,
      "count": 190,
      "max": [
        0.9995021224021912,
        0.9964799284934998,
        0.9928134083747864
      ],
      "min": [
        -0.9995021224021912,
        -0.9989917278289795,
        -0.9934760928153992
      ],
      "type": "VEC3"
    },
    {
      "bufferView": 1,
      "byteOffset": 46144,
      "componentType": 5126,
      "count": 190,
      "max": [
        0.9994435906410217,
        0.6252344846725464
      ],
      "min": [
        0.5624002814292908,
        0.2108127325773239
      ],
      "type": "VEC2"
    },
    {
      "bufferView": 0,
      "byteOffset": 119712,
      "componentType": 5125,
      "count": 756,
      "type": "SCALAR"
    },
    {
      "bufferView": 2,
      "byteOffset": 142992,
      "componentType": 5126,
      "count": 3170,
      "max": [
        12.428062438964844,
        54.260467529296875,
        16.42273712158203
      ],
      "min": [
        -12.428062438964844,
        32.70733642578125,
        -7.158000946044922
      ],
      "type": "VEC3"
    },
    {
      "bufferView": 2,
      "byteOffset": 181032,
      "componentType": 5126,
      "count": 3170,
      "max": [
        0.9999855160713196,
        0.9952430129051208,
        0.9982441663742065
      ],
      "min": [
        -0.9999855160713196,
        -0.9991951584815979,
        -0.9982441663742065
      ],
      "type": "VEC3"
    },
    {
      "bufferView": 3,
      "byteOffset": 92288,
      "componentType": 5126,
      "count": 3170,
      "max": [
        0.8601868748664856,
        0.9999723434448242,
        0.9993131756782532,
        1.0
      ],
      "min": [
        -0.9999573230743408,
        -0.9999908208847046,
        -0.999751627445221,
        1.0
      ],
      "type": "VEC4"
    },
    {
      "bufferView": 1,
      "byteOffset": 47664,
      "componentType": 5126,
      "count": 3170,
      "max": [
        0.5020142197608948,
        1.0
      ],
      "min": [
        0.0,
        6.597275842068484e-06
      ],
      "type": "VEC2"
    },
    {
      "bufferView": 0,
      "byteOffset": 122736,
      "componentType": 5125,
      "count": 12960,
      "type": "SCALAR"
    }
  ],
  "asset": {
    "extras": {
      "author": "AndreiVNK (https://sketchfab.com/AndreiVNK)",
      "license": "CC-BY-4.0 (http://creativecommons.org/licenses/by/4.0/)",
      "source": "https://sketchfab.com/3d-models/classic-table-lamp-1a3292317bb342b4b33431081338a5c3",
      "title": "Classic table lamp"
    },
    "generator": "Sketchfab-15.31.0",
    "version": "2.0"
  },
  "bufferViews": [
    {
      "buffer": 0,
      "byteLength": 174576,
      "name": "floatBufferViews",
      "target": 34963
    },
    {
      "buffer": 0,
      "byteLength": 73024,
      "byteOffset": 174576,
      "byteStride": 8,
      "name": "floatBufferViews",
      "target": 34962
    },
    {
      "buffer": 0,
      "byteLength": 219072,
      "byteOffset": 247600,
      "byteStride": 12,
      "name": "floatBufferViews",
      "target": 34962
    },
    {
      "buffer": 0,
      "byteLength": 143008,
      "byteOffset": 466672,
      "byteStride": 16,
      "name": "floatBufferViews",
      "target": 34962
    }
  ],
  "buffers": [
    {
      "byteLength": 609680,
      "uri": "scene.bin"
    }
  ],
  "extensionsUsed": [
    "KHR_materials_emissive_strength",
    "KHR_materials_transmission",
    "KHR_materials_specular"
  ],
  "images": [
    {
      "uri": "textures/M_lamp_1_base_baseColor.jpeg"
    },
    {
      "uri": "textures/M_lamp_1_base_metallicRoughness.png"
    },
    {
      "uri": "textures/M_lamp_1_base_normal.png"
    }
  ],
  "materials": [
    {
      "doubleSided": true,
      "name": "M_lamp_1_base",
      "normalTexture": {
        "index": 2
      },
      "occlusionTexture": {
        "index": 1
      },
      "pbrMetallicRoughness": {
        "baseColorTexture": {
          "index": 0
        },
        "metallicRoughnessTexture": {
          "index": 1
        }
      }
    },
    {
      "doubleSided": true,
      "emissiveFactor": [
        1.0,
        1.0,
        1.0
      ],
      "extensions": {
        "KHR_materials_emissive_strength": {
          "emissiveStrength": 10.0
        }
      },
      "name": "M_lamp_bulb",
      "pbrMetallicRoughness": {
        "baseColorFactor": [
          0.5,
          0.5,
          0.5,
          1.0
        ],
        "metallicFactor": 0.0,
        "roughnessFactor": 0.6
      }
    },
    {
      "alphaMode": "BLEND",
      "doubleSided": true,
      "extensions": {
        "KHR_materials_specular": {
          "specularColorFactor": [
            1.0,
            1.0,
            1.0
          ],
          "specularFactor": 0.0
        },
        "KHR_materials_transmission": {
          "transmissionFactor": 0.025000000000000022
        }
      },
      "name": "M_lamp_1_glass",
      "normalTexture": {
        "index": 2
      },
      "occlusionTexture": {
        "index": 1
      },
      "pbrMetallicRoughness": {
        "baseColorFactor": [
          1.0,
          1.0,
          1.0,
          0.975
        ],
        "baseColorTexture": {
          "index": 0
        },
        "metallicRoughnessTexture": {
          "index": 1
        }
      }
    }
  ],
  "meshes": [
    {
      "name": "Lamp_1_low1_M_lamp_1_base_0",
      "primitives": [
        {
          "attributes": {
            "NORMAL": 1,
            "POSITION": 0,
            "TANGENT": 2,
            "TEXCOORD_0": 3
          },
          "indices": 4,
          "material": 0,
          "mode": 4
        }
      ]
    },
    {
      "name": "Lamp_1_low1_M_lamp_bulb_0",
      "primitives": [
        {
          "attributes": {
            "NORMAL": 6,
            "POSITION": 5,
            "TEXCOORD_0": 7
          },
          "indices": 8,
          "material": 1,
          "mode": 4
        }
      ]
    },
    {
      "name": "Lamp_1_low1_M_lamp_1_glass_0",
      "primitives": [
        {
          "attributes": {
            "NORMAL": 10,
            "POSITION": 9,
            "TANGENT": 11,
            "TEXCOORD_0": 12
          },
          "indices": 13,
          "material": 2,
          "mode": 4
        }
      ]
    }
  ],
  "nodes": [
    {
      "children": [
        1
      ],
      "matrix": [
        1.0,
        0.0,
        0.0,
        0.0,
        0.0,
        2.220446049250313e-16,
        -1.0,
        0.0,
        0.0,
        1.0,
        2.220446049250313e-16,
        0.0,
        0.0,
        0.0,
        0.0,
        1.0
      ],
      "name": "Sketchfab_model"
    },
    {
      "children": [
        2
      ],
      "matrix": [
        0.009999999776482582,
        0.0,
        0.0,
        0.0,
        0.0,
        0.0,
        0.009999999776482582,
        0.0,
        0.0,
        -0.009999999776482582,
        0.0,
        0.0,
        0.0,
        0.0,
        0.0,
        1.0
      ],
      "name": "f8901d3a830c44e5a1b7cf71965b5030.fbx"
    },
    {
      "children": [
        3
      ],
      "name": "RootNode"
    },
    {
      "children": [
        4,
        5,
        6
      ],
      "name": "Lamp_1_low1"
    },
    {
      "mesh": 0,
      "name": "Lamp_1_low1_M_lamp_1_base_0"
    },
    {
      "mesh": 1,
      "name": "Lamp_1_low1_M_lamp_bulb_0"
    },
    {
      "mesh": 2,
      "name": "Lamp_1_low1_M_lamp_1_glass_0"
    }
  ],
  "samplers": [
    {
      "magFilter": 9729,
      "minFilter": 9987,
      "wrapS": 10497,
      "wrapT": 10497
    }
  ],
  "scene": 0,
  "scenes": [
    {
      "name": "Sketchfab_Scene",
      "nodes": [
        0
      ]
    }
  ],
  "textures": [
    {
      "sampler": 0,
      "source": 0
    },
    {
      "sampler": 0,
      "source": 1
    },
    {
      "sampler": 0,
      "source": 2
    }
  ]
}
